# xmcd
#
# Track frame offsets: 
#        150
#        27028
#        47038
#        66763
#        83882
#        113693
#        130343
#        145569
#        166773
#
# Disc length: 2690 seconds
#
# Revision: 0
# Processed by: cddbd v1.5.2PL0 Copyright (c) Steve Scherf et al.
# Submitted via: ExactAudioCopy v1.0b1
#
DISCID=6b0a8009
DTITLE=Henry McCullough Blues Band - Belfast to Boston
DYEAR=2001
DGENRE=Blues
TTITLE0=Old Black Coat
TTITLE1=You Can't Do That
TTITLE2=Hi Ya Folks
TTITLE3=Down In The Amusment
TTITLE4=Sick And Tired
TTITLE5=Murder In My Heart
TTITLE6=Mess Of Blues
TTITLE7=I Can't Help Falling In Love
TTITLE8=Belfast To Boston
EXTD=
EXTT0=
EXTT1=
EXTT2=
EXTT3=
EXTT4=
EXTT5=
EXTT6=
EXTT7=
EXTT8=
PLAYORDER=
